<?xml version="1.0" encoding="UTF-8" standalone="no"?>
<!DOCTYPE svg PUBLIC "-//W3C//DTD SVG 1.1//EN"
 "http://www.w3.org/Graphics/SVG/1.1/DTD/svg11.dtd">
<!-- Generated by graphviz version 2.38.0 (20140413.2041)
 -->
<!-- Title: G Pages: 1 -->
<svg width="2020pt" height="791pt"
 viewBox="0.00 0.00 2020.16 790.80" xmlns="http://www.w3.org/2000/svg" xmlns:xlink="http://www.w3.org/1999/xlink">
<g id="graph0" class="graph" transform="scale(1 1) rotate(0) translate(4 786.8)">
<title>G</title>
<polygon fill="white" stroke="none" points="-4,4 -4,-786.8 2016.16,-786.8 2016.16,4 -4,4"/>
<g id="clust1" class="cluster"><title>cluster_0</title>
<polygon fill="none" stroke="black" points="8,-208.4 8,-285.2 154,-285.2 154,-208.4 8,-208.4"/>
<text text-anchor="middle" x="81" y="-268.6" font-family="Times,serif" font-size="14.00">Feedforward Ensemble</text>
</g>
<g id="clust2" class="cluster"><title>cluster_1</title>
<polygon fill="none" stroke="black" points="1573,-698 1573,-774.8 1719,-774.8 1719,-698 1573,-698"/>
<text text-anchor="middle" x="1646" y="-758.2" font-family="Times,serif" font-size="14.00">Feedforward Ensemble</text>
</g>
<g id="clust3" class="cluster"><title>cluster_2</title>
<polygon fill="none" stroke="black" points="169,-8 169,-663.2 580,-663.2 580,-8 169,-8"/>
<text text-anchor="middle" x="374.5" y="-646.6" font-family="Times,serif" font-size="14.00">LSTMForgetEnsemble</text>
</g>
<g id="clust4" class="cluster"><title>cluster_3</title>
<polygon fill="none" stroke="black" points="1050,-8 1050,-663.2 1470,-663.2 1470,-8 1050,-8"/>
<text text-anchor="middle" x="1260" y="-646.6" font-family="Times,serif" font-size="14.00">LSTMForgetEnsemble</text>
</g>
<g id="clust5" class="cluster"><title>cluster_4</title>
<polygon fill="none" stroke="black" points="620,-96.8 620,-173.6 766,-173.6 766,-96.8 620,-96.8"/>
<text text-anchor="middle" x="693" y="-157" font-family="Times,serif" font-size="14.00">Feedforward Ensemble</text>
</g>
<!-- n0 -->
<g id="node1" class="node"><title>n0</title>
<ellipse fill="white" stroke="black" cx="94" cy="-234.4" rx="44.0795" ry="18"/>
<text text-anchor="middle" x="94" y="-230.2" font-family="Times,serif" font-size="14.00">Bias &#160;[0]</text>
</g>
<!-- n22 -->
<g id="node23" class="node"><title>n22</title>
<ellipse fill="white" stroke="black" cx="693" cy="-122.8" rx="56.7464" ry="18"/>
<text text-anchor="middle" x="693" y="-118.6" font-family="Times,serif" font-size="14.00">Tanh22[22]</text>
</g>
<!-- n0&#45;&gt;n22 -->
<g id="edge1" class="edge"><title>n0&#45;&gt;n22</title>
<path fill="none" stroke="black" d="M90.2404,-216.439C88.7766,-204.901 89.2558,-190.217 98.5,-181.6 108.366,-172.403 570.845,-176.577 584,-173.6 610.338,-167.641 637.988,-154.923 658.849,-143.832"/>
<polygon fill="black" stroke="black" points="660.532,-146.9 667.638,-139.042 657.182,-140.754 660.532,-146.9"/>
<text text-anchor="middle" x="133.25" y="-185.8" font-family="Times,serif" font-size="14.00">0.00954957</text>
</g>
<!-- n3 -->
<g id="node2" class="node"><title>n3</title>
<ellipse fill="white" stroke="black" cx="1646" cy="-724" rx="40.5693" ry="18"/>
<text text-anchor="middle" x="1646" y="-719.8" font-family="Times,serif" font-size="14.00">Lin1[3]</text>
</g>
<!-- n7 -->
<g id="node4" class="node"><title>n7</title>
<ellipse fill="white" stroke="black" cx="400" cy="-612.4" rx="45.7848" ry="18"/>
<text text-anchor="middle" x="400" y="-608.2" font-family="Times,serif" font-size="14.00">ingate[7]</text>
</g>
<!-- n3&#45;&gt;n7 -->
<g id="edge3" class="edge"><title>n3&#45;&gt;n7</title>
<path fill="none" stroke="black" d="M1605.54,-722.578C1409.48,-720.318 563.115,-708.02 455,-663.2 441.667,-657.673 429.469,-647.444 419.967,-637.688"/>
<polygon fill="black" stroke="black" points="422.3,-635.054 412.954,-630.064 417.148,-639.793 422.3,-635.054"/>
<text text-anchor="middle" x="628.25" y="-675.4" font-family="Times,serif" font-size="14.00">0.199263</text>
</g>
<!-- n8 -->
<g id="node5" class="node"><title>n8</title>
<ellipse fill="white" stroke="black" cx="408" cy="-122.8" rx="61.3742" ry="18"/>
<text text-anchor="middle" x="408" y="-118.6" font-family="Times,serif" font-size="14.00">forgetgate[8]</text>
</g>
<!-- n3&#45;&gt;n8 -->
<g id="edge4" class="edge"><title>n3&#45;&gt;n8</title>
<path fill="none" stroke="black" d="M1635.44,-706.265C1623.29,-685.371 1605,-648.14 1605,-613.4 1605,-613.4 1605,-613.4 1605,-233.4 1605,-191.414 1566.18,-193.767 1526,-181.6 1470.33,-164.744 534.402,-191.326 479,-173.6 462.061,-168.18 445.637,-157.159 432.86,-146.86"/>
<polygon fill="black" stroke="black" points="434.925,-144.024 425.021,-140.262 430.418,-149.379 434.925,-144.024"/>
<text text-anchor="middle" x="1627.75" y="-430.6" font-family="Times,serif" font-size="14.00">1439.91</text>
</g>
<!-- n15 -->
<g id="node6" class="node"><title>n15</title>
<ellipse fill="white" stroke="black" cx="273" cy="-122.8" rx="55.5985" ry="18"/>
<text text-anchor="middle" x="273" y="-118.6" font-family="Times,serif" font-size="14.00">outgate[15]</text>
</g>
<!-- n3&#45;&gt;n15 -->
<g id="edge5" class="edge"><title>n3&#45;&gt;n15</title>
<path fill="none" stroke="black" d="M1613.9,-712.694C1574.26,-697.717 1512,-665.845 1512,-613.4 1512,-613.4 1512,-613.4 1512,-233.4 1512,-204.847 1499.42,-194.594 1474,-181.6 1445.9,-167.239 367.85,-183.838 338,-173.6 322.267,-168.204 307.338,-157.338 295.764,-147.129"/>
<polygon fill="black" stroke="black" points="298.036,-144.464 288.319,-140.242 293.283,-149.602 298.036,-144.464"/>
<text text-anchor="middle" x="1540.58" y="-430.6" font-family="Times,serif" font-size="14.00">&#45;0.209547</text>
</g>
<!-- n6 -->
<g id="node7" class="node"><title>n6</title>
<ellipse fill="white" stroke="black" cx="530" cy="-122.8" rx="42.2952" ry="18"/>
<text text-anchor="middle" x="530" y="-118.6" font-family="Times,serif" font-size="14.00">input[6]</text>
</g>
<!-- n3&#45;&gt;n6 -->
<g id="edge2" class="edge"><title>n3&#45;&gt;n6</title>
<path fill="none" stroke="black" d="M1656.56,-706.265C1668.71,-685.371 1687,-648.14 1687,-613.4 1687,-613.4 1687,-613.4 1687,-233.4 1687,-195.408 1654.95,-193.892 1619,-181.6 1566.27,-163.57 669.758,-188.272 616,-173.6 594.934,-167.851 573.678,-155.614 557.568,-144.71"/>
<polygon fill="black" stroke="black" points="559.381,-141.707 549.182,-138.839 555.367,-147.441 559.381,-141.707"/>
<text text-anchor="middle" x="1715.58" y="-430.6" font-family="Times,serif" font-size="14.00">&#45;0.640793</text>
</g>
<!-- n5 -->
<g id="node14" class="node"><title>n5</title>
<ellipse fill="white" stroke="black" cx="1256" cy="-612.4" rx="45.7848" ry="18"/>
<text text-anchor="middle" x="1256" y="-608.2" font-family="Times,serif" font-size="14.00">ingate[5]</text>
</g>
<!-- n3&#45;&gt;n5 -->
<g id="edge7" class="edge"><title>n3&#45;&gt;n5</title>
<path fill="none" stroke="black" d="M1605.95,-720.623C1544.92,-715.853 1425.91,-701.995 1333,-663.2 1315.6,-655.936 1297.82,-644.736 1283.74,-634.796"/>
<polygon fill="black" stroke="black" points="1285.64,-631.847 1275.48,-628.816 1281.53,-637.517 1285.64,-631.847"/>
<text text-anchor="middle" x="1425.25" y="-675.4" font-family="Times,serif" font-size="14.00">0.490971</text>
</g>
<!-- n11 -->
<g id="node15" class="node"><title>n11</title>
<ellipse fill="white" stroke="black" cx="1274" cy="-122.8" rx="66.0319" ry="18"/>
<text text-anchor="middle" x="1274" y="-118.6" font-family="Times,serif" font-size="14.00">forgetgate[11]</text>
</g>
<!-- n3&#45;&gt;n11 -->
<g id="edge8" class="edge"><title>n3&#45;&gt;n11</title>
<path fill="none" stroke="black" d="M1686.32,-721.262C1751.55,-716.051 1873,-695.346 1873,-613.4 1873,-613.4 1873,-613.4 1873,-233.4 1873,-191.414 1834.12,-193.974 1794,-181.6 1746.74,-167.025 1396.21,-188.312 1349,-173.6 1331.21,-168.055 1313.71,-156.87 1300.11,-146.503"/>
<polygon fill="black" stroke="black" points="1302.18,-143.679 1292.17,-140.211 1297.83,-149.165 1302.18,-143.679"/>
<text text-anchor="middle" x="1895.75" y="-430.6" font-family="Times,serif" font-size="14.00">1439.99</text>
</g>
<!-- n18 -->
<g id="node16" class="node"><title>n18</title>
<ellipse fill="white" stroke="black" cx="1114" cy="-122.8" rx="55.5985" ry="18"/>
<text text-anchor="middle" x="1114" y="-118.6" font-family="Times,serif" font-size="14.00">outgate[18]</text>
</g>
<!-- n3&#45;&gt;n18 -->
<g id="edge9" class="edge"><title>n3&#45;&gt;n18</title>
<path fill="none" stroke="black" d="M1678.1,-712.694C1717.74,-697.717 1780,-665.845 1780,-613.4 1780,-613.4 1780,-613.4 1780,-233.4 1780,-191.414 1741.13,-193.934 1701,-181.6 1647.68,-165.213 1252.72,-188.638 1199,-173.6 1178.71,-167.92 1158.27,-156.175 1142.51,-145.517"/>
<polygon fill="black" stroke="black" points="1144.48,-142.619 1134.28,-139.754 1140.46,-148.354 1144.48,-142.619"/>
<text text-anchor="middle" x="1808.58" y="-430.6" font-family="Times,serif" font-size="14.00">&#45;0.118433</text>
</g>
<!-- n4 -->
<g id="node17" class="node"><title>n4</title>
<ellipse fill="white" stroke="black" cx="1400" cy="-122.8" rx="42.2952" ry="18"/>
<text text-anchor="middle" x="1400" y="-118.6" font-family="Times,serif" font-size="14.00">input[4]</text>
</g>
<!-- n3&#45;&gt;n4 -->
<g id="edge6" class="edge"><title>n3&#45;&gt;n4</title>
<path fill="none" stroke="black" d="M1685.76,-720.474C1744.95,-716.173 1852.92,-706.086 1887,-688 1926.63,-666.968 1955,-658.263 1955,-613.4 1955,-613.4 1955,-613.4 1955,-233.4 1955,-131.577 1590.91,-122.797 1452.52,-123.138"/>
<polygon fill="black" stroke="black" points="1452.16,-119.639 1442.17,-123.182 1452.19,-126.639 1452.16,-119.639"/>
<text text-anchor="middle" x="1983.58" y="-430.6" font-family="Times,serif" font-size="14.00">&#45;0.419136</text>
</g>
<!-- n1 -->
<g id="node3" class="node"><title>n1</title>
<ellipse fill="white" stroke="black" cx="518" cy="-612.4" rx="54.4681" ry="18"/>
<text text-anchor="middle" x="518" y="-608.2" font-family="Times,serif" font-size="14.00">lstmbias[1]</text>
</g>
<!-- n10 -->
<g id="node8" class="node"><title>n10</title>
<ellipse fill="white" stroke="black" cx="400" cy="-523.6" rx="57.3437" ry="18"/>
<text text-anchor="middle" x="400" y="-519.4" font-family="Times,serif" font-size="14.00">in_mult[10]</text>
</g>
<!-- n7&#45;&gt;n10 -->
<g id="edge13" class="edge"><title>n7&#45;&gt;n10</title>
<path fill="none" stroke="black" d="M400,-594.251C400,-582.125 400,-565.619 400,-551.719"/>
<polygon fill="black" stroke="black" points="403.5,-551.713 400,-541.713 396.5,-551.713 403.5,-551.713"/>
<text text-anchor="middle" x="403.5" y="-563.8" font-family="Times,serif" font-size="14.00">1</text>
</g>
<!-- n9 -->
<g id="node9" class="node"><title>n9</title>
<ellipse fill="white" stroke="black" cx="225" cy="-34" rx="48.0916" ry="18"/>
<text text-anchor="middle" x="225" y="-29.8" font-family="Times,serif" font-size="14.00">f_mult[9]</text>
</g>
<!-- n8&#45;&gt;n9 -->
<g id="edge14" class="edge"><title>n8&#45;&gt;n9</title>
<path fill="none" stroke="black" d="M376.957,-107.076C345.358,-92.0879 296.349,-68.8419 262.577,-52.8232"/>
<polygon fill="black" stroke="black" points="264.017,-49.6329 253.482,-48.5096 261.018,-55.9575 264.017,-49.6329"/>
<text text-anchor="middle" x="336.5" y="-74.2" font-family="Times,serif" font-size="14.00">1</text>
</g>
<!-- n21 -->
<g id="node12" class="node"><title>n21</title>
<ellipse fill="white" stroke="black" cx="477" cy="-234.4" rx="54.4759" ry="18"/>
<text text-anchor="middle" x="477" y="-230.2" font-family="Times,serif" font-size="14.00">o_mult[21]</text>
</g>
<!-- n15&#45;&gt;n21 -->
<g id="edge25" class="edge"><title>n15&#45;&gt;n21</title>
<path fill="none" stroke="black" d="M273.694,-140.989C275.348,-158.104 280.616,-183.862 297,-198.4 314.267,-213.723 369.742,-222.917 414.59,-228.009"/>
<polygon fill="black" stroke="black" points="414.242,-231.492 424.562,-229.095 415,-224.533 414.242,-231.492"/>
<text text-anchor="middle" x="300.5" y="-185.8" font-family="Times,serif" font-size="14.00">1</text>
</g>
<!-- n6&#45;&gt;n10 -->
<g id="edge12" class="edge"><title>n6&#45;&gt;n10</title>
<path fill="none" stroke="black" d="M517.804,-140.137C508.305,-151.55 494.062,-166.046 478,-173.6 464.032,-180.169 419.267,-170.074 409,-181.6 404.034,-187.175 408.785,-190.936 409,-198.4 410.112,-237.026 400.731,-248.908 414,-285.2 415.526,-289.374 418.595,-288.984 420,-293.2 443.466,-363.598 422.388,-452.512 409.025,-496.08"/>
<polygon fill="black" stroke="black" points="405.676,-495.061 405.986,-505.651 412.348,-497.179 405.676,-495.061"/>
<text text-anchor="middle" x="434.5" y="-341.8" font-family="Times,serif" font-size="14.00">1</text>
</g>
<!-- n12 -->
<g id="node10" class="node"><title>n12</title>
<ellipse fill="white" stroke="black" cx="271" cy="-434.8" rx="45.806" ry="18"/>
<text text-anchor="middle" x="271" y="-430.6" font-family="Times,serif" font-size="14.00">CEC[12]</text>
</g>
<!-- n10&#45;&gt;n12 -->
<g id="edge16" class="edge"><title>n10&#45;&gt;n12</title>
<path fill="none" stroke="black" d="M376.937,-507.082C355.86,-492.899 324.544,-471.828 301.423,-456.271"/>
<polygon fill="black" stroke="black" points="303.252,-453.283 293.002,-450.604 299.345,-459.091 303.252,-453.283"/>
<text text-anchor="middle" x="351.5" y="-475" font-family="Times,serif" font-size="14.00">1</text>
</g>
<!-- n9&#45;&gt;n12 -->
<g id="edge15" class="edge"><title>n9&#45;&gt;n12</title>
<path fill="none" stroke="black" d="M218.976,-52.0577C214.974,-64.326 210.085,-81.3613 208,-96.8 203.432,-130.626 204.279,-139.67 208,-173.6 219.178,-275.515 228.972,-300.469 258,-398.8 258.826,-401.598 259.763,-404.493 260.747,-407.366"/>
<polygon fill="black" stroke="black" points="257.49,-408.651 264.178,-416.868 264.074,-406.274 257.49,-408.651"/>
<text text-anchor="middle" x="229.5" y="-230.2" font-family="Times,serif" font-size="14.00">1</text>
</g>
<!-- n12&#45;&gt;n7 -->
<g id="edge20" class="edge"><title>n12&#45;&gt;n7</title>
<path fill="none" stroke="grey" d="M268.218,-453.081C265.569,-475.386 264.204,-514.538 281.5,-541.6 298.506,-568.208 329.569,-585.953 355.626,-596.891"/>
<polygon fill="grey" stroke="grey" points="354.378,-600.162 364.963,-600.617 356.972,-593.66 354.378,-600.162"/>
<text text-anchor="middle" x="308.25" y="-519.4" font-family="Times,serif" font-size="14.00">0.922192</text>
</g>
<!-- n12&#45;&gt;n8 -->
<g id="edge22" class="edge"><title>n12&#45;&gt;n8</title>
<path fill="none" stroke="grey" d="M269.292,-416.438C267.889,-394.728 267.9,-356.904 281,-328 285.543,-317.977 292.614,-319.596 298,-310 326.951,-258.421 300.084,-230.744 333,-181.6 342.924,-166.783 357.906,-154.144 371.876,-144.498"/>
<polygon fill="grey" stroke="grey" points="373.967,-147.312 380.39,-138.887 370.114,-141.468 373.967,-147.312"/>
<text text-anchor="middle" x="331.08" y="-297.4" font-family="Times,serif" font-size="14.00">&#45;5.95014</text>
</g>
<!-- n12&#45;&gt;n15 -->
<g id="edge21" class="edge"><title>n12&#45;&gt;n15</title>
<path fill="none" stroke="black" d="M267.616,-416.667C263.103,-392.857 255.35,-348.359 252.5,-310 248.278,-253.177 259.437,-186.917 266.901,-150.753"/>
<polygon fill="black" stroke="black" points="270.327,-151.471 268.986,-140.962 263.48,-150.014 270.327,-151.471"/>
<text text-anchor="middle" x="275.75" y="-297.4" font-family="Times,serif" font-size="14.00">4.23829</text>
</g>
<!-- n12&#45;&gt;n9 -->
<g id="edge18" class="edge"><title>n12&#45;&gt;n9</title>
<path fill="none" stroke="grey" d="M259.858,-416.893C243.08,-390.245 212.206,-336.242 202,-285.2 185.582,-203.091 193.289,-180.179 201,-96.8 202.116,-84.7349 201.949,-81.4194 206,-70 207.11,-66.8723 208.471,-63.6869 209.951,-60.5756"/>
<polygon fill="grey" stroke="grey" points="213.112,-62.0832 214.612,-51.5951 206.899,-58.8583 213.112,-62.0832"/>
<text text-anchor="middle" x="205.5" y="-230.2" font-family="Times,serif" font-size="14.00">1</text>
</g>
<!-- n16 -->
<g id="node11" class="node"><title>n16</title>
<ellipse fill="white" stroke="black" cx="347" cy="-346" rx="56.7464" ry="18"/>
<text text-anchor="middle" x="347" y="-341.8" font-family="Times,serif" font-size="14.00">Tanh10[16]</text>
</g>
<!-- n12&#45;&gt;n16 -->
<g id="edge19" class="edge"><title>n12&#45;&gt;n16</title>
<path fill="none" stroke="black" d="M285.295,-417.474C296.687,-404.463 312.811,-386.047 325.72,-371.304"/>
<polygon fill="black" stroke="black" points="328.556,-373.378 332.511,-363.548 323.29,-368.766 328.556,-373.378"/>
<text text-anchor="middle" x="319.5" y="-386.2" font-family="Times,serif" font-size="14.00">1</text>
</g>
<!-- n16&#45;&gt;n21 -->
<g id="edge26" class="edge"><title>n16&#45;&gt;n21</title>
<path fill="none" stroke="black" d="M366.182,-328.828C388.36,-310.13 425.019,-279.224 450.053,-258.119"/>
<polygon fill="black" stroke="black" points="452.35,-260.76 457.739,-251.638 447.838,-255.408 452.35,-260.76"/>
<text text-anchor="middle" x="412.5" y="-297.4" font-family="Times,serif" font-size="14.00">1</text>
</g>
<!-- n21&#45;&gt;n7 -->
<g id="edge45" class="edge"><title>n21&#45;&gt;n7</title>
<path fill="none" stroke="grey" d="M477,-252.486C477,-274.047 477,-312.272 477,-345 477,-524.6 477,-524.6 477,-524.6 477,-552.574 454.343,-575.74 433.609,-591.083"/>
<polygon fill="grey" stroke="grey" points="431.39,-588.364 425.213,-596.971 435.41,-594.095 431.39,-588.364"/>
<text text-anchor="middle" x="499.75" y="-430.6" font-family="Times,serif" font-size="14.00">24.3223</text>
</g>
<!-- n21&#45;&gt;n8 -->
<g id="edge46" class="edge"><title>n21&#45;&gt;n8</title>
<path fill="none" stroke="grey" d="M444.305,-219.842C435.043,-214.475 425.855,-207.396 419.839,-198.4 410.631,-184.628 407.628,-166.281 406.948,-151.228"/>
<polygon fill="grey" stroke="grey" points="410.444,-150.914 406.808,-140.962 403.445,-151.009 410.444,-150.914"/>
<text text-anchor="middle" x="445.08" y="-185.8" font-family="Times,serif" font-size="14.00">&#45;6.09415</text>
</g>
<!-- n21&#45;&gt;n15 -->
<g id="edge47" class="edge"><title>n21&#45;&gt;n15</title>
<path fill="none" stroke="grey" d="M432.286,-223.916C410.708,-218.281 384.92,-209.943 363.5,-198.4 338.318,-184.831 313.521,-163.689 296.269,-147.372"/>
<polygon fill="grey" stroke="grey" points="298.525,-144.685 288.899,-140.259 293.664,-149.722 298.525,-144.685"/>
<text text-anchor="middle" x="386.75" y="-185.8" font-family="Times,serif" font-size="14.00">37.1791</text>
</g>
<!-- n21&#45;&gt;n6 -->
<g id="edge44" class="edge"><title>n21&#45;&gt;n6</title>
<path fill="none" stroke="grey" d="M473.656,-216.018C472.431,-205.674 472.235,-192.486 476.5,-181.6 481.866,-167.904 492.169,-155.512 502.313,-145.746"/>
<polygon fill="grey" stroke="grey" points="504.901,-148.124 509.955,-138.812 500.197,-142.94 504.901,-148.124"/>
<text text-anchor="middle" x="503.25" y="-185.8" font-family="Times,serif" font-size="14.00">0.628589</text>
</g>
<!-- n21&#45;&gt;n5 -->
<g id="edge49" class="edge"><title>n21&#45;&gt;n5</title>
<path fill="none" stroke="grey" d="M527.929,-240.915C627.376,-251.449 854.428,-274.347 1046,-285.2 1080.29,-287.143 1322.35,-282.554 1355,-293.2 1393.52,-305.757 1430,-304.489 1430,-345 1430,-524.6 1430,-524.6 1430,-524.6 1430,-553.222 1353.66,-582.011 1302.11,-598.187"/>
<polygon fill="grey" stroke="grey" points="1301,-594.865 1292.48,-601.154 1303.06,-601.554 1301,-594.865"/>
<text text-anchor="middle" x="1452.75" y="-430.6" font-family="Times,serif" font-size="14.00">1.50934</text>
</g>
<!-- n21&#45;&gt;n11 -->
<g id="edge50" class="edge"><title>n21&#45;&gt;n11</title>
<path fill="none" stroke="grey" d="M531.203,-232.282C625.584,-229.738 815.964,-221.795 878,-198.4 889.791,-193.953 888.924,-185.701 900.839,-181.6 959.312,-161.475 1119.17,-189.246 1179,-173.6 1201.25,-167.782 1224.13,-155.991 1241.87,-145.342"/>
<polygon fill="grey" stroke="grey" points="1243.98,-148.153 1250.64,-139.915 1240.3,-142.199 1243.98,-148.153"/>
<text text-anchor="middle" x="926.08" y="-185.8" font-family="Times,serif" font-size="14.00">&#45;9.46757</text>
</g>
<!-- n21&#45;&gt;n18 -->
<g id="edge51" class="edge"><title>n21&#45;&gt;n18</title>
<path fill="none" stroke="grey" d="M530.829,-231.06C611.477,-226.993 759.489,-217.197 809,-198.4 821.003,-193.843 820.733,-186.736 832.5,-181.6 903.457,-150.626 991.827,-135.965 1050.43,-129.221"/>
<polygon fill="grey" stroke="grey" points="1051.09,-132.669 1060.65,-128.09 1050.32,-125.711 1051.09,-132.669"/>
<text text-anchor="middle" x="855.75" y="-185.8" font-family="Times,serif" font-size="14.00">16.9062</text>
</g>
<!-- n21&#45;&gt;n4 -->
<g id="edge48" class="edge"><title>n21&#45;&gt;n4</title>
<path fill="none" stroke="grey" d="M531.465,-233.735C639.466,-233.692 876.739,-229.882 951,-198.4 961.329,-194.021 959.399,-185.706 969.839,-181.6 1009.05,-166.179 1310.14,-189.904 1349,-173.6 1361.66,-168.288 1372.92,-158.228 1381.63,-148.532"/>
<polygon fill="grey" stroke="grey" points="1384.55,-150.493 1388.31,-140.586 1379.19,-145.988 1384.55,-150.493"/>
<text text-anchor="middle" x="995.08" y="-185.8" font-family="Times,serif" font-size="14.00">&#45;2.98097</text>
</g>
<!-- n21&#45;&gt;n22 -->
<g id="edge43" class="edge"><title>n21&#45;&gt;n22</title>
<path fill="none" stroke="black" d="M530.256,-229.999C580.375,-225.728 650.684,-216.627 671,-198.4 684.274,-186.491 689.707,-167.015 691.857,-150.949"/>
<polygon fill="black" stroke="black" points="695.34,-151.294 692.845,-140.997 688.374,-150.603 695.34,-151.294"/>
<text text-anchor="middle" x="706.75" y="-185.8" font-family="Times,serif" font-size="14.00">1.85263</text>
</g>
<!-- n2 -->
<g id="node13" class="node"><title>n2</title>
<ellipse fill="white" stroke="black" cx="1396" cy="-612.4" rx="54.4681" ry="18"/>
<text text-anchor="middle" x="1396" y="-608.2" font-family="Times,serif" font-size="14.00">lstmbias[2]</text>
</g>
<!-- n14 -->
<g id="node18" class="node"><title>n14</title>
<ellipse fill="white" stroke="black" cx="1256" cy="-523.6" rx="57.3437" ry="18"/>
<text text-anchor="middle" x="1256" y="-519.4" font-family="Times,serif" font-size="14.00">in_mult[14]</text>
</g>
<!-- n5&#45;&gt;n14 -->
<g id="edge11" class="edge"><title>n5&#45;&gt;n14</title>
<path fill="none" stroke="black" d="M1256,-594.251C1256,-582.125 1256,-565.619 1256,-551.719"/>
<polygon fill="black" stroke="black" points="1259.5,-551.713 1256,-541.713 1252.5,-551.713 1259.5,-551.713"/>
<text text-anchor="middle" x="1259.5" y="-563.8" font-family="Times,serif" font-size="14.00">1</text>
</g>
<!-- n13 -->
<g id="node19" class="node"><title>n13</title>
<ellipse fill="white" stroke="black" cx="1274" cy="-34" rx="52.7488" ry="18"/>
<text text-anchor="middle" x="1274" y="-29.8" font-family="Times,serif" font-size="14.00">f_mult[13]</text>
</g>
<!-- n11&#45;&gt;n13 -->
<g id="edge17" class="edge"><title>n11&#45;&gt;n13</title>
<path fill="none" stroke="black" d="M1274,-104.651C1274,-92.5249 1274,-76.019 1274,-62.119"/>
<polygon fill="black" stroke="black" points="1277.5,-62.1132 1274,-52.1133 1270.5,-62.1133 1277.5,-62.1132"/>
<text text-anchor="middle" x="1277.5" y="-74.2" font-family="Times,serif" font-size="14.00">1</text>
</g>
<!-- n20 -->
<g id="node22" class="node"><title>n20</title>
<ellipse fill="white" stroke="black" cx="1126" cy="-234.4" rx="54.4759" ry="18"/>
<text text-anchor="middle" x="1126" y="-230.2" font-family="Times,serif" font-size="14.00">o_mult[20]</text>
</g>
<!-- n18&#45;&gt;n20 -->
<g id="edge32" class="edge"><title>n18&#45;&gt;n20</title>
<path fill="none" stroke="black" d="M1115.86,-140.805C1117.78,-158.293 1120.79,-185.793 1123.03,-206.287"/>
<polygon fill="black" stroke="black" points="1119.56,-206.715 1124.12,-216.275 1126.52,-205.953 1119.56,-206.715"/>
<text text-anchor="middle" x="1126.5" y="-185.8" font-family="Times,serif" font-size="14.00">1</text>
</g>
<!-- n4&#45;&gt;n14 -->
<g id="edge10" class="edge"><title>n4&#45;&gt;n14</title>
<path fill="none" stroke="black" d="M1400.15,-141.186C1399.96,-171.232 1397.53,-234.519 1382,-285.2 1368.59,-328.97 1301.71,-445.113 1271.21,-496.969"/>
<polygon fill="black" stroke="black" points="1268.19,-495.194 1266.13,-505.585 1274.22,-498.75 1268.19,-495.194"/>
<text text-anchor="middle" x="1367.5" y="-341.8" font-family="Times,serif" font-size="14.00">1</text>
</g>
<!-- n17 -->
<g id="node20" class="node"><title>n17</title>
<ellipse fill="white" stroke="black" cx="1239" cy="-434.8" rx="45.806" ry="18"/>
<text text-anchor="middle" x="1239" y="-430.6" font-family="Times,serif" font-size="14.00">CEC[17]</text>
</g>
<!-- n14&#45;&gt;n17 -->
<g id="edge24" class="edge"><title>n14&#45;&gt;n17</title>
<path fill="none" stroke="black" d="M1252.64,-505.451C1250.27,-493.325 1247.03,-476.819 1244.31,-462.919"/>
<polygon fill="black" stroke="black" points="1247.71,-462.054 1242.35,-452.913 1240.84,-463.4 1247.71,-462.054"/>
<text text-anchor="middle" x="1253.5" y="-475" font-family="Times,serif" font-size="14.00">1</text>
</g>
<!-- n13&#45;&gt;n17 -->
<g id="edge23" class="edge"><title>n13&#45;&gt;n17</title>
<path fill="none" stroke="black" d="M1246.09,-49.5616C1229.04,-60.1408 1208.72,-76.2003 1199,-96.8 1184.44,-127.671 1176.24,-148.166 1199,-173.6 1209.74,-185.595 1260.16,-169.701 1271,-181.6 1306.4,-220.441 1278.75,-267.358 1273,-310 1268.39,-344.21 1256.91,-382.339 1248.57,-407.123"/>
<polygon fill="black" stroke="black" points="1245.15,-406.283 1245.21,-416.878 1251.77,-408.561 1245.15,-406.283"/>
<text text-anchor="middle" x="1292.5" y="-230.2" font-family="Times,serif" font-size="14.00">1</text>
</g>
<!-- n17&#45;&gt;n5 -->
<g id="edge29" class="edge"><title>n17&#45;&gt;n5</title>
<path fill="none" stroke="grey" d="M1210.93,-449.229C1176.04,-467.893 1123.5,-503.68 1144.5,-541.6 1158.97,-567.731 1187.76,-585.38 1212.46,-596.394"/>
<polygon fill="grey" stroke="grey" points="1211.11,-599.625 1221.69,-600.294 1213.84,-593.177 1211.11,-599.625"/>
<text text-anchor="middle" x="1167.75" y="-519.4" font-family="Times,serif" font-size="14.00">10.0777</text>
</g>
<!-- n17&#45;&gt;n11 -->
<g id="edge31" class="edge"><title>n17&#45;&gt;n11</title>
<path fill="none" stroke="grey" d="M1263.89,-419.554C1271.28,-414.047 1278.58,-407.06 1283,-398.8 1304.1,-359.402 1298.11,-243.053 1300,-198.4 1300.32,-190.94 1301.57,-188.901 1300,-181.6 1297.68,-170.788 1293.17,-159.557 1288.56,-149.902"/>
<polygon fill="grey" stroke="grey" points="1291.61,-148.192 1283.98,-140.847 1285.37,-151.351 1291.61,-148.192"/>
<text text-anchor="middle" x="1325.25" y="-297.4" font-family="Times,serif" font-size="14.00">0.274474</text>
</g>
<!-- n17&#45;&gt;n18 -->
<g id="edge30" class="edge"><title>n17&#45;&gt;n18</title>
<path fill="none" stroke="black" d="M1235.93,-416.561C1226.3,-363.008 1196.56,-201.889 1184,-181.6 1175.02,-167.091 1161.11,-154.515 1148.05,-144.832"/>
<polygon fill="black" stroke="black" points="1149.84,-141.81 1139.65,-138.896 1145.8,-147.526 1149.84,-141.81"/>
<text text-anchor="middle" x="1244.58" y="-297.4" font-family="Times,serif" font-size="14.00">&#45;0.514702</text>
</g>
<!-- n17&#45;&gt;n13 -->
<g id="edge27" class="edge"><title>n17&#45;&gt;n13</title>
<path fill="none" stroke="grey" d="M1264.99,-419.837C1274.2,-414.104 1284.2,-406.902 1292,-398.8 1317.54,-372.28 1311.51,-356.349 1335,-328 1342.63,-318.791 1347.06,-318.946 1355,-310 1355.77,-309.133 1450.65,-174.704 1451,-173.6 1461.3,-141.059 1470.76,-124.631 1451,-96.8 1425.12,-60.3465 1376.05,-45.22 1336.13,-39.0288"/>
<polygon fill="grey" stroke="grey" points="1336.59,-35.5587 1326.2,-37.6398 1335.62,-42.4912 1336.59,-35.5587"/>
<text text-anchor="middle" x="1430.5" y="-230.2" font-family="Times,serif" font-size="14.00">1</text>
</g>
<!-- n19 -->
<g id="node21" class="node"><title>n19</title>
<ellipse fill="white" stroke="black" cx="1152" cy="-346" rx="56.7464" ry="18"/>
<text text-anchor="middle" x="1152" y="-341.8" font-family="Times,serif" font-size="14.00">Tanh20[19]</text>
</g>
<!-- n17&#45;&gt;n19 -->
<g id="edge28" class="edge"><title>n17&#45;&gt;n19</title>
<path fill="none" stroke="black" d="M1223.04,-417.88C1209.84,-404.709 1190.89,-385.804 1175.89,-370.83"/>
<polygon fill="black" stroke="black" points="1178,-367.995 1168.45,-363.409 1173.05,-372.95 1178,-367.995"/>
<text text-anchor="middle" x="1207.5" y="-386.2" font-family="Times,serif" font-size="14.00">1</text>
</g>
<!-- n19&#45;&gt;n20 -->
<g id="edge33" class="edge"><title>n19&#45;&gt;n20</title>
<path fill="none" stroke="black" d="M1147.94,-327.875C1143.78,-310.341 1137.25,-282.834 1132.4,-262.372"/>
<polygon fill="black" stroke="black" points="1135.75,-261.327 1130.03,-252.405 1128.94,-262.943 1135.75,-261.327"/>
<text text-anchor="middle" x="1147.5" y="-297.4" font-family="Times,serif" font-size="14.00">1</text>
</g>
<!-- n20&#45;&gt;n7 -->
<g id="edge36" class="edge"><title>n20&#45;&gt;n7</title>
<path fill="none" stroke="grey" d="M1159.14,-248.851C1188.94,-260.375 1234.2,-276.456 1275,-285.2 1292.47,-288.944 1340,-283.492 1355,-293.2 1382.45,-310.967 1380.75,-331.812 1375,-364 1370.6,-388.626 1363.08,-392.961 1355.5,-416.8 1338.09,-471.527 1356.04,-495.346 1322,-541.6 1304.85,-564.897 1294.69,-568.041 1267,-576.4 1180.61,-602.478 544.078,-579.936 455,-594.4 450.894,-595.067 446.669,-595.966 442.472,-597.005"/>
<polygon fill="grey" stroke="grey" points="441.53,-593.634 432.801,-599.638 443.369,-600.388 441.53,-593.634"/>
<text text-anchor="middle" x="1382.25" y="-430.6" font-family="Times,serif" font-size="14.00">0.272706</text>
</g>
<!-- n20&#45;&gt;n8 -->
<g id="edge37" class="edge"><title>n20&#45;&gt;n8</title>
<path fill="none" stroke="grey" d="M1071.14,-233.92C957.769,-234.297 701.581,-231.337 621.5,-198.4 610.92,-194.049 612.589,-185.929 602,-181.6 551.291,-160.871 530.677,-191.782 479,-173.6 462.339,-167.738 446.04,-156.792 433.268,-146.652"/>
<polygon fill="grey" stroke="grey" points="435.356,-143.836 425.417,-140.166 430.898,-149.233 435.356,-143.836"/>
<text text-anchor="middle" x="644.75" y="-185.8" font-family="Times,serif" font-size="14.00">6.91965</text>
</g>
<!-- n20&#45;&gt;n15 -->
<g id="edge38" class="edge"><title>n20&#45;&gt;n15</title>
<path fill="none" stroke="grey" d="M1071.48,-232.131C936.709,-228.707 595.362,-218.177 547.839,-198.4 537.482,-194.09 539.397,-185.814 529,-181.6 489.629,-165.644 377.938,-188.079 338,-173.6 322.472,-167.97 307.65,-157.193 296.091,-147.099"/>
<polygon fill="grey" stroke="grey" points="298.385,-144.455 288.642,-140.293 293.664,-149.622 298.385,-144.455"/>
<text text-anchor="middle" x="573.08" y="-185.8" font-family="Times,serif" font-size="14.00">&#45;5.53451</text>
</g>
<!-- n20&#45;&gt;n6 -->
<g id="edge35" class="edge"><title>n20&#45;&gt;n6</title>
<path fill="none" stroke="grey" d="M1072.46,-230.895C986.029,-226.403 819.752,-215.792 763.5,-198.4 748.715,-193.829 747.848,-185.964 733,-181.6 682.994,-166.902 665.846,-188.832 616,-173.6 595.396,-167.304 574.43,-155.3 558.357,-144.656"/>
<polygon fill="grey" stroke="grey" points="560.198,-141.674 549.965,-138.927 556.251,-147.456 560.198,-141.674"/>
<text text-anchor="middle" x="786.75" y="-185.8" font-family="Times,serif" font-size="14.00">2.93966</text>
</g>
<!-- n20&#45;&gt;n5 -->
<g id="edge40" class="edge"><title>n20&#45;&gt;n5</title>
<path fill="none" stroke="grey" d="M1112.86,-252.159C1098.05,-272.781 1076,-309.446 1076,-345 1076,-524.6 1076,-524.6 1076,-524.6 1076,-580.66 1147.71,-600.532 1200.61,-607.565"/>
<polygon fill="grey" stroke="grey" points="1200.23,-611.045 1210.58,-608.771 1201.07,-604.095 1200.23,-611.045"/>
<text text-anchor="middle" x="1098.75" y="-430.6" font-family="Times,serif" font-size="14.00">46.1078</text>
</g>
<!-- n20&#45;&gt;n11 -->
<g id="edge41" class="edge"><title>n20&#45;&gt;n11</title>
<path fill="none" stroke="grey" d="M1152.51,-218.526C1162.59,-212.586 1174.03,-205.482 1184,-198.4 1206.53,-182.401 1230.55,-162.319 1248.1,-147.023"/>
<polygon fill="grey" stroke="grey" points="1250.48,-149.592 1255.69,-140.363 1245.86,-144.333 1250.48,-149.592"/>
<text text-anchor="middle" x="1237.75" y="-185.8" font-family="Times,serif" font-size="14.00">0.0667433</text>
</g>
<!-- n20&#45;&gt;n18 -->
<g id="edge42" class="edge"><title>n20&#45;&gt;n18</title>
<path fill="none" stroke="grey" d="M1130.68,-216.442C1132.04,-210.754 1133.33,-204.346 1134,-198.4 1134.84,-190.98 1135.24,-188.963 1134,-181.6 1132.24,-171.108 1128.79,-159.975 1125.25,-150.31"/>
<polygon fill="grey" stroke="grey" points="1128.46,-148.919 1121.59,-140.857 1121.93,-151.446 1128.46,-148.919"/>
<text text-anchor="middle" x="1157.75" y="-185.8" font-family="Times,serif" font-size="14.00">14.0067</text>
</g>
<!-- n20&#45;&gt;n4 -->
<g id="edge39" class="edge"><title>n20&#45;&gt;n4</title>
<path fill="none" stroke="grey" d="M1171.26,-224.348C1227.36,-212.603 1319.19,-191.498 1349,-173.6 1360.44,-166.733 1371.29,-156.817 1380.02,-147.639"/>
<polygon fill="grey" stroke="grey" points="1382.66,-149.932 1386.81,-140.185 1377.49,-145.215 1382.66,-149.932"/>
<text text-anchor="middle" x="1352.25" y="-185.8" font-family="Times,serif" font-size="14.00">1.1818</text>
</g>
<!-- n20&#45;&gt;n22 -->
<g id="edge34" class="edge"><title>n20&#45;&gt;n22</title>
<path fill="none" stroke="black" d="M1098.44,-218.87C1070.93,-204.458 1031.68,-184.157 1024,-181.6 934.108,-151.672 825.05,-136.454 757.325,-129.327"/>
<polygon fill="black" stroke="black" points="757.535,-125.83 747.23,-128.292 756.822,-132.794 757.535,-125.83"/>
<text text-anchor="middle" x="1085.58" y="-185.8" font-family="Times,serif" font-size="14.00">&#45;0.856657</text>
</g>
</g>
</svg>

